<?xml version="1.0" encoding="UTF-8"?><svg id="_레이어_1" xmlns="http://www.w3.org/2000/svg" xmlns:xlink="http://www.w3.org/1999/xlink" viewBox="0 0 58 58"><defs><style>.cls-1{fill:url(#_흰색_검정);}.cls-2{fill:url(#_무제_그라디언트_2);}.cls-3{filter:url(#luminosity-invert);}.cls-4{fill:#3070e9;}.cls-5{fill:#709ed5;}.cls-6{mask:url(#mask-1);}.cls-7{mask:url(#mask);}</style><filter id="luminosity-invert" color-interpolation-filters="sRGB" filterUnits="userSpaceOnUse"><feColorMatrix values="-1 0 0 0 1 0 -1 0 0 1 0 0 -1 0 1 0 0 0 1 0"/></filter><linearGradient id="_흰색_검정" x1="39.24" y1="55.54" x2="28.57" y2="-9.28" gradientTransform="translate(-.1 2.86)" gradientUnits="userSpaceOnUse"><stop offset="0" stop-color="#fff"/><stop offset="1" stop-color="#000"/></linearGradient><mask id="mask" x="-6.55" y="-2.16" width="79.93" height="51.58" maskUnits="userSpaceOnUse"><g class="cls-3"><rect class="cls-1" x="-6.49" y="-2.08" width="79.82" height="51.41" transform="translate(-.05 .07) rotate(-.12)"/></g></mask><linearGradient id="_무제_그라디언트_2" x1="44.67" y1="64.95" x2="14.02" y2="14.93" gradientTransform="translate(-.07 2.88)" gradientUnits="userSpaceOnUse"><stop offset="0" stop-color="#fff"/><stop offset=".08" stop-color="#e5e5e5"/><stop offset=".34" stop-color="#949494"/><stop offset=".57" stop-color="#545454"/><stop offset=".77" stop-color="#262626"/><stop offset=".91" stop-color="#0a0a0a"/><stop offset="1" stop-color="#000"/></linearGradient><mask id="mask-1" x="-5.58" y="9.14" width="60.18" height="51.79" maskUnits="userSpaceOnUse"><g class="cls-3"><rect class="cls-2" x="-5.53" y="9.21" width="60.07" height="51.66" transform="translate(-.07 .05) rotate(-.12)"/></g></mask></defs><g class="cls-7"><path class="cls-5" d="M58,27.19c0,.93-.04,1.85-.14,2.76-.68,6.74-3.89,12.76-8.69,17.15-.12,.11-.24,.21-.36,.32-8.83-1.22-19.22-10.06-18.05-18.93,.7-5.31,5.55-10.7,9.59-10.55,.04,.01,.09,.02,.13,.04-.01,0-.03-.02-.04-.03-.01-.01-.03-.02-.04-.03-4.84-3.74-11.03-5.98-17.76-5.97-7.58,.02-14.46,2.88-19.49,7.53C6.59,8.23,17.27,.03,29.94,0c10.96-.02,20.46,6.08,25.08,15,1.9,3.66,2.97,7.8,2.98,12.19Z"/></g><g class="cls-6"><path class="cls-4" d="M43.15,51.17c-2.11,1.86-8.61,7.09-17.48,6.82-11.38-.34-22.03-9.56-25.67-23.05,4.5-10.75,14.69-18.27,26.57-18.3,3.02,0,5.93,.47,8.67,1.36-3.78-.16-8.3,5.89-8.96,11.86-1.09,9.98,8.62,19.93,16.87,21.3Z"/></g></svg>